# xmcd
#
# Track frame offsets: 
#        150
#        13247
#        31184
#        52850
#        69597
#        86759
#        108127
#        128744
#        149051
#        167038
#
# Disc length: 2404 seconds
#
# Revision: 1
# Processed by: cddbd v1.5.2PL0 Copyright (c) Steve Scherf et al.
# Submitted via: ExactAudioCopy v1.0b3
#
DISCID=8309620a
DTITLE=Compilations - Juice Vol.5
DYEAR=2000
DGENRE=Hip-Hop
TTITLE0=Everlast - Deadly Assassins feat. B-Real
TTITLE1=Too Short - 2 Bitches
TTITLE2=B-Legit - Rap Star feat. Lil Bruce
TTITLE3=Kutmaster Kurt pres. Masters Of Illusion - Urban Legends
TTITLE4=Jedi Mind Tricks - G'engis Khan feat. Tragedy Khadafi
TTITLE5=Deltron 3030 - Positive Contact
TTITLE6=Five Deez - Blue Light Special feat. Lone Catalysts
TTITLE7=Nimzwai - Rückgrat
TTITLE8=Korrekt Technique - Entschuldigt uns
TTITLE9=Bektas - Was Lousn?
EXTD=
EXTT0=
EXTT1=
EXTT2=
EXTT3=
EXTT4=
EXTT5=
EXTT6=
EXTT7=
EXTT8=
EXTT9=
PLAYORDER=
